<svg xmlns="http://www.w3.org/2000/svg" xmlns:xlink="http://www.w3.org/1999/xlink" version="1.1" x="0px" y="0px" viewBox="1335.378 -96.703 100 58.407" enable-background="new 1335.378 -96.703 100 58.407" xml:space="preserve"><g><path d="M1400.729-80.809l-1.757-1.619c-1.124-1.032-3.215-2.953-4.349-4.51c-0.635-0.874-2.562-2.757-3.628-3.74l-1.472-1.357   l2.713-2.943l1.472,1.356c0.313,0.288,3.081,2.854,4.151,4.329c0.897,1.232,2.872,3.044,3.819,3.915l1.765,1.627L1400.729-80.809z"></path><path d="M1392.826-80.488l-2.942-2.715l1.357-1.47c0.281-0.304,0.673-0.682,1.116-1.107c0.885-0.847,2.096-2.007,2.66-2.933   c0.907-1.491,3.386-4.642,3.665-4.997l1.239-1.572l3.143,2.479l-1.239,1.572c-0.718,0.911-2.728,3.512-3.39,4.601   c-0.837,1.372-2.207,2.685-3.309,3.74c-0.374,0.358-0.707,0.675-0.943,0.931L1392.826-80.488z"></path></g><g><path d="M1354.79-81.95l-1.625-1.735c-1.048-1.113-2.996-3.185-4.015-4.826c-0.567-0.915-2.352-2.936-3.344-3.995l-1.368-1.461   l2.922-2.736l1.368,1.46c0.291,0.31,2.863,3.072,3.823,4.622c0.807,1.299,2.645,3.253,3.528,4.192l1.633,1.743L1354.79-81.95z"></path><path d="M1346.888-82.208l-2.737-2.922l1.461-1.368c0.303-0.284,0.726-0.635,1.201-1.028c0.942-0.778,2.232-1.844,2.86-2.724   c1.017-1.42,3.718-4.382,4.022-4.715l1.352-1.477l2.952,2.703l-1.351,1.477c-0.782,0.855-2.978,3.304-3.719,4.341   c-0.934,1.304-2.394,2.511-3.567,3.48c-0.401,0.332-0.759,0.625-1.015,0.864L1346.888-82.208z"></path></g><path d="M1373.97-79.06L1373.97-79.06l-0.731-0.01c-2.604,0-6.237-2.374-6.237-6.238c0-4.294,2.507-7.18,6.237-7.18  c4.435,0,7.18,3.239,7.18,6.239c0,2.77-0.799,4.788-2.377,5.997C1376.649-79.184,1375.052-79.06,1373.97-79.06z M1373.238-88.485  c-1.944,0-2.234,1.991-2.234,3.177c0,1.542,1.776,2.235,2.234,2.235l0.731,0.01l0,0c0.541,0,1.214-0.042,1.636-0.365  c0.522-0.4,0.81-1.402,0.81-2.821C1376.415-87.004,1375.456-88.485,1373.238-88.485z"></path><path d="M1420.574-80.732L1420.574-80.732l-0.731-0.01c-2.604,0-6.237-2.373-6.237-6.238c0-4.295,2.507-7.18,6.237-7.18  c4.435,0,7.18,3.239,7.18,6.239c0,2.77-0.799,4.788-2.376,5.997C1423.254-80.855,1421.656-80.732,1420.574-80.732z M1419.843-90.157  c-1.944,0-2.234,1.991-2.234,3.177c0,1.542,1.776,2.235,2.234,2.235l0.731,0.01l0,0c0.541,0,1.214-0.042,1.636-0.365  c0.522-0.4,0.81-1.403,0.81-2.821C1423.02-88.676,1422.061-90.157,1419.843-90.157z"></path><path d="M1361.543-62.395c0.426,1.839,1.911,3.239,2.961,2.984c1.71-0.412,1.24-4.063,0.965-5.535  c-1.219-6.518-4.256-12.239-8.936-14.645c-1.99-1.022-7.041-0.833-9.003,0c-2.708,1.151-4.778,6.766-5.619,6.161  c-0.656-0.473-1.413-2.747-2.437-5.009c-0.617-1.363-1.751-3.16-3.078-2.47c-1.326,0.691-1.201,2.564-0.51,3.892  c0,0,2.276,4.539,3.419,6.394c1.682,2.729,4.153,2.262,4.84,1.052c0.447-0.79,1.831-3.607,2.099-3.046  c0.677,1.425-0.835,24.032-0.609,31.569c0.044,1.494,0.939,2.752,2.166,2.752c1.496,0,2.238-1.303,2.301-2.798  c0.547-13.158-0.069-16.292,1.829-16.292c1.805,0,1.185,3.115,1.377,16.519c0.021,1.487,0.759,2.571,2.244,2.571  c0.008,0,0.017,0,0.023,0c1.496-0.013,2.43-1.211,2.425-2.707c-0.023-6.523-1.467-28.839-0.722-29.854  C1359.087-73.324,1360.953-64.942,1361.543-62.395z"></path><path d="M1401.786-78.885c-2.603-1.207-7.755-0.75-9.963,0.417c-3.404,1.801-6.33,14.63-6.33,14.63s-4.436-9.917-6.958-12.433  c-2.268-2.261-7.018-0.845-8.459-1.573c-2.596-1.31-5.276-6.144-7.631-8.318c-1.016-0.938-2.223-1.811-3.259-0.897  c-1.035,0.914-0.678,2.348,0.193,3.421c2.135,2.627,5.762,7.352,7.506,10.242c0.864,1.432,0.864,17.819-0.104,19.9  c-0.337,0.724-2.095-1.387-3.607-2.249c-1.237-0.705-2.473-1.338-3.169-0.146c-0.698,1.193,0.322,2.815,1.438,3.628  c1.89,1.376,6.115,3.709,7.562,3.342c1.259-0.32,1.483-1.354,1.674-2.217c0.335-1.521,0.146-6.066,1.272-5.941  c1.555,0.173,1.036,10.638,1.314,14.177c0.125,1.59,1.084,2.46,2.083,2.46c0.014,0,0.025,0,0.037,0  c1.383-0.021,2.021-1.039,2.091-2.419c0.333-6.505,0.072-24.539,0.015-26.029c-0.098-2.53,5.777,9.321,5.777,9.321  c0.459,0.819,1.31,1.28,2.186,1.28c0.099,0,0.196-0.025,0.295-0.037c0.133,0.021,0.268,0.038,0.399,0.038  c0.989,0,1.927-0.591,2.319-1.565c0,0,2.971-12.388,3.811-10.11c0.688,1.864-0.265,20.306-0.444,27.058  c-0.037,1.382,0.938,2.462,2.146,2.541c1.128,0.074,2.319-0.95,2.355-2.329c0.303-11.653-0.215-14.854,1.446-15.011  c0.89-0.084,1.47,0.082,2.391,14.593c0.085,1.338,0.833,2.794,2.158,2.794c1.657,0,2.021-1.62,1.954-3  c0,0-2.333-25.192-2.158-26.616c0.37-3.034,5.293,10.021,5.293,10.021c0.651,1.22,2.17,1.679,3.386,1.025  c1.219-0.652,1.677-2.168,1.025-3.386C1411.832-62.271,1405.99-76.935,1401.786-78.885z"></path><path d="M1434.342-83.236c0.817-1.113,1.553-3.257,0.554-4.212s-2.658-0.226-3.613,0.774c-3.391,3.549-6.371,7.361-8.154,8.237  c-0.916,0.45-3.14,0.589-5.377-0.345c-3.063-1.279-7.207-6.237-9.196-8.664c-0.875-1.068-2.132-1.38-3.164-0.461  c-1.032,0.919-0.421,2.273,0.225,3.372c1.896,3.222,8.892,9.374,9.55,11.292c1.083,3.156-0.543,21.919-0.48,29.613  c0.011,1.382,0.538,2.893,1.919,2.938c0.029,0.001,0.057,0.001,0.085,0.001c1.344,0,2.467-1.067,2.498-2.419  c0.085-3.654,0.184-14.53,1.628-14.53c1,0,2.629,7.885,4.77,8.411c2.548,0.626,6.992-4.076,8.87-5.982  c0.97-0.984,1.125-2.7,0.026-3.539c-1.032-0.788-2.138-0.172-3.033,0.879c-0.842,0.987-3.431,3.861-4.212,2.961  c-1.396-1.609-1.437-17.075-1.042-18.681C1426.648-75.446,1429.53-76.688,1434.342-83.236z"></path></svg>