<svg xmlns="http://www.w3.org/2000/svg" xmlns:xlink="http://www.w3.org/1999/xlink" version="1.1" x="0px" y="0px" viewBox="0 0 100 125" enable-background="new 0 0 100 100" xml:space="preserve"><path d="M46.843,42.03c-2.318,0.289-4.05-0.063-5.145-1.049c-1.302-1.173-1.293-2.92-1.292-2.953  c0.011-0.461-0.353-0.846-0.814-0.858c-0.005,0-0.013,0-0.02,0c-0.454-0.002-0.828,0.356-0.841,0.813  c-0.004,0.103-0.051,2.519,1.825,4.225c1.156,1.052,2.751,1.587,4.755,1.597c0.549,0.002,1.128-0.034,1.738-0.11  c0.459-0.057,0.785-0.476,0.728-0.936C47.719,42.301,47.298,41.975,46.843,42.03z"/><path d="M50.092,30.021c-0.01,1.84,1.475,3.338,3.314,3.348l6.939,0.035c1.842,0.008,3.34-1.477,3.348-3.314l0.011-1.743  c0.014,0,0.026,0.004,0.041,0.004c0.591,0.003,1.071-0.474,1.073-1.065l0.007-1.002c0.002-0.59-0.474-1.071-1.065-1.074  c-0.137,0-0.267,0.025-0.388,0.072c-0.54-1.102-1.664-1.865-2.976-1.871l-6.941-0.034c-0.698-0.005-1.348,0.209-1.885,0.573  c-0.661-0.332-1.469-0.598-2.406-0.631c-0.972-0.037-1.935,0.168-2.886,0.609c-0.553-0.417-1.237-0.668-1.982-0.672l-6.941-0.034  c-1.331-0.007-2.48,0.771-3.02,1.896c-0.102-0.033-0.208-0.056-0.321-0.057c-0.591-0.003-1.072,0.475-1.075,1.064l-0.005,1.002  c-0.002,0.592,0.473,1.072,1.064,1.076l-0.008,1.666c-0.009,1.838,1.476,3.338,3.316,3.348l6.94,0.034  c1.84,0.009,3.339-1.476,3.347-3.314l0.017-3.332c0.001-0.169-0.014-0.331-0.038-0.493c0.501-0.199,0.993-0.297,1.472-0.283  c0.419,0.014,0.796,0.109,1.128,0.242c-0.039,0.201-0.062,0.408-0.062,0.621L50.092,30.021z"/><path d="M65.277,44.198c0.57-0.821,1.088-1.688,1.537-2.604c0.457,0.215,0.939,0.326,1.435,0.328  c2.584,0.014,4.624-2.892,4.644-6.611c0.018-3.672-1.941-6.569-4.479-6.653c-0.524-2.479-1.497-4.766-2.821-6.785  c-0.804-0.08-1.762-0.188-2.831-0.324c1.923,2.359,3.259,5.238,3.771,8.439l0.193,1.215l1.168-0.383  c0.143-0.049,0.276-0.069,0.412-0.068c1.19,0.006,2.506,1.876,2.49,4.551c-0.012,2.675-1.346,4.532-2.535,4.525  c-0.389-0.002-0.773-0.188-1.146-0.555l-1.108-1.098l-0.594,1.441c-0.699,1.688-1.634,3.227-2.755,4.582  c-3.34,4.037-8.35,6.453-13.793,6.426c-5.451-0.026-10.342-2.508-13.601-6.426c-2.18-2.623-3.637-5.881-4.017-9.504l-0.106-1.014  l-1.016,0.079l-0.102,0.011c-1.254-0.006-2.642-2.021-2.628-4.9c0.015-2.881,1.423-4.881,2.677-4.875  c0.591,0.002,1.072,0.424,1.372,0.774l1.006,1.183l0.72-1.375c0.765-1.463,1.713-2.785,2.805-3.951  c-0.77,0.203-1.573,0.328-2.429,0.324h-0.001c-0.18,0-0.36-0.01-0.54-0.021c-0.367,0.493-0.721,1.001-1.044,1.533  c-0.583-0.368-1.216-0.56-1.878-0.562c-2.662-0.015-4.763,3.043-4.783,6.959c-0.017,3.545,1.678,6.401,3.974,6.922  c0.462,3.112,1.637,5.969,3.341,8.416c3.59,5.154,9.544,8.488,16.239,8.521C55.518,52.752,61.592,49.506,65.277,44.198z"/><path d="M33.549,19.694L33.549,19.694c0.16,0,0.314-0.015,0.469-0.022c1.752-0.103,3.301-0.8,4.91-1.574  c0.09-0.043,0.18-0.085,0.27-0.129c1.856-0.896,3.774-1.819,6.013-1.808c1.155,0.005,2.285,0.255,3.456,0.761  c3.665,1.589,8.715,2.577,12.759,3.163c1.162,0.169,2.239,0.303,3.18,0.41c0.838,0.095,1.568,0.168,2.146,0.221l-5.079-6.412  l-0.033-0.107c-0.039-0.111-0.906-2.79-1.188-6.244c-0.228-2.758-2.417-3.64-2.767-3.763c-0.752-0.102-8.709-1.154-15.367-1.187  C41.219,2.997,40.2,3.021,39.289,3.07c-1.75,0.097-3.053,0.706-3.87,1.812c-1.807,2.449-0.812,6.557-0.803,6.598l0.058,0.23  l-3.867,7.458C31.74,19.516,32.643,19.688,33.549,19.694z"/><path d="M63.848,47.47l9.201,2.126c0.092,0.491,0.146,1.003,0.145,1.532l-0.037,7.685l6.626,0.033  c0.288,0.001,0.575,0.044,0.854,0.125c3.269-0.81,5.692-3.754,5.692-7.272c0-4.143-3.357-7.5-7.501-7.5h-12.12  C65.871,45.401,64.907,46.491,63.848,47.47z"/><path d="M16.861,59.116l2.143-1.307l2.011-1.225c0.512-0.312,1.104-0.475,1.714-0.473c0.529,0.002,1.049,0.135,1.532,0.365  l0.027-5.595c0.003-0.529,0.062-1.04,0.159-1.53l9.402-2.074c-0.987-0.934-1.886-1.961-2.667-3.082h-13.26  c-4.143,0-7.501,3.357-7.501,7.5C10.422,55.479,13.223,58.598,16.861,59.116z"/><path d="M79.992,60.739c-0.25-0.147-0.516-0.263-0.786-0.34c-0.278-0.082-0.563-0.123-0.854-0.125l-6.627-0.033l0.039-7.686  c0.002-0.529-0.053-1.041-0.145-1.531l-9.202-2.127c-0.101,0.092-0.194,0.188-0.295,0.275c-0.043,0.824-0.149,2.911-0.151,3.334  l-0.041,8.12l-0.106,21.694c-2.003,0.541-4.037,0.988-5.554,1.354c0.91,0.868,1.481,2.089,1.481,3.442  c0,0.217-0.021,0.428-0.048,0.636c1.156-0.292,2.6-0.629,4.098-1.013l-0.029,6.031L61.82,98l9.744-5.179l0.059-11.971l6.628,0.032  c0.567,0.003,1.131-0.151,1.644-0.451c3.75-1.235,6.271-4.78,6.293-8.876l0.008-1.878C86.217,65.585,83.73,62.016,79.992,60.739z   M83.508,71.544c-0.015,2.934-1.895,5.559-4.572,6.385c-0.123,0.037-0.24,0.094-0.349,0.164c-0.112,0.076-0.222,0.113-0.323,0.113  l-6.627-0.033l-2.307-0.012c-0.428-0.002-0.801-0.533-0.798-1.139c0.003-0.436,0.2-0.839,0.504-1.027  c0.392-0.242,0.631-0.67,0.633-1.131s-0.231-0.891-0.622-1.137c-0.301-0.191-0.495-0.598-0.492-1.033  c0.002-0.436,0.199-0.84,0.504-1.026c0.392-0.244,0.629-0.671,0.633-1.132c0.002-0.461-0.231-0.891-0.621-1.137  c-0.303-0.191-0.495-0.599-0.494-1.033c0.003-0.436,0.201-0.838,0.504-1.026c0.393-0.244,0.631-0.671,0.632-1.132  c0.003-0.461-0.231-0.891-0.619-1.137c-0.303-0.191-0.497-0.599-0.493-1.033c0.002-0.604,0.381-1.133,0.81-1.131l2.305,0.013  l6.628,0.032c0.102,0,0.208,0.039,0.324,0.117c0.105,0.071,0.223,0.129,0.346,0.168c2.668,0.853,4.522,3.496,4.508,6.429  L83.508,71.544z"/><path d="M40.869,83.864c-1.848-0.334-3.771-0.746-5.509-1.144l0.109-22.094l0.042-8.267c0.002-0.47-0.104-2.988-0.128-3.557  c-0.034-0.031-0.068-0.064-0.103-0.098l-9.403,2.074c-0.097,0.49-0.156,1.002-0.159,1.53l-0.027,5.595  c-0.483-0.229-1.002-0.362-1.532-0.364c-0.61-0.003-1.202,0.161-1.714,0.472l-2.012,1.225l-2.143,1.307l-3.476,2.115  c-0.485,0.295-0.884,0.724-1.163,1.246c-2.546,3.02-2.835,7.358-0.706,10.856l0.977,1.604c1.709,2.807,4.763,4.561,7.97,4.576  c0.675,0.004,1.347-0.07,2-0.219c0.591-0.008,1.157-0.167,1.641-0.46l0.048-0.028l-0.062,12.344l7.087,3.854l2.605,1.418  l0.101-5.226l0.027-5.502c1.591,0.361,3.279,0.715,4.937,1.01c-0.168-0.486-0.265-1.008-0.265-1.553  C40.01,85.573,40.329,84.637,40.869,83.864z M31.77,73.331l-5.608,3.414l-0.566,0.346l-1.456,0.887  c-0.08,0.049-0.181,0.061-0.335,0.07c-0.13-0.007-0.258,0.007-0.382,0.038c-0.493,0.12-1.002,0.183-1.516,0.18  c-2.283-0.011-4.465-1.272-5.694-3.291l-0.978-1.604c-1.525-2.504-1.3-5.727,0.548-7.832c0.085-0.098,0.155-0.205,0.21-0.322  c0.058-0.126,0.129-0.214,0.215-0.268l5.083-3.094l2.015-1.227l0.534-0.325c0.089-0.054,0.192-0.081,0.308-0.081  c0.278,0.001,0.569,0.157,0.795,0.406c0.062,0.068,0.123,0.143,0.173,0.225c0.226,0.373,0.27,0.82,0.11,1.141  c-0.207,0.412-0.187,0.9,0.052,1.295c0.099,0.162,0.234,0.289,0.386,0.396c0.215,0.15,0.47,0.244,0.74,0.248  c0.359,0.005,0.736,0.249,0.962,0.621c0.227,0.371,0.27,0.817,0.109,1.138c-0.206,0.412-0.186,0.901,0.054,1.295  c0.24,0.395,0.666,0.637,1.125,0.645c0.358,0.005,0.736,0.248,0.962,0.62c0.228,0.372,0.269,0.817,0.11,1.139  c-0.207,0.412-0.186,0.901,0.053,1.295c0.24,0.394,0.665,0.638,1.125,0.644c0.358,0.006,0.737,0.25,0.963,0.621  C32.18,72.462,32.135,73.11,31.77,73.331z"/><path d="M41.788,84.091c-0.839,0.438-1.42,1.305-1.42,2.314c0,0.789,0.357,1.487,0.911,1.97c0.459,0.399,1.053,0.649,1.708,0.649  h4.524v-0.302v-4.315v-0.621h-4.524C42.552,83.786,42.148,83.903,41.788,84.091z"/><path d="M54.417,83.786h-0.858h-3.904v0.463v4.335v0.44h4.764c1.018,0,1.891-0.589,2.324-1.437c0.184-0.356,0.296-0.757,0.296-1.185  C57.037,84.961,55.861,83.786,54.417,83.786z"/><text x="0" y="115" fill="#000000" font-size="5px" font-weight="bold" font-family="'Helvetica Neue', Helvetica, Arial-Unicode, Arial, Sans-serif">Created by Les vieux garçons</text><text x="0" y="120" fill="#000000" font-size="5px" font-weight="bold" font-family="'Helvetica Neue', Helvetica, Arial-Unicode, Arial, Sans-serif">from the Noun Project</text></svg>