<svg xmlns="http://www.w3.org/2000/svg" xmlns:xlink="http://www.w3.org/1999/xlink" version="1.1" x="0px" y="0px" viewBox="-255 347 100 125" enable-background="new -255 347 100 100" xml:space="preserve"><g><path fill="#000000" d="M-212.324,391.754L-212.324,391.754c-1.254,0-2.28,1.026-2.28,2.28v7.076c0,1.254,1.026,2.28,2.28,2.28h0   c1.254,0,2.28-1.026,2.28-2.28v-7.076C-210.044,392.78-211.07,391.754-212.324,391.754z"/><path fill="#000000" d="M-160.907,379.18c-0.701-2.739-3.163-4.653-5.987-4.653c-0.517,0-1.034,0.065-1.537,0.194   c-1.424,0.374-2.658,1.225-3.495,2.403c-0.054,0.077-0.105,0.155-0.153,0.236l-3.215,5.431l-6.294-3.721   c0.697,0.182,1.415,0.306,2.161,0.306c0.72,0,1.441-0.091,2.143-0.272c2.224-0.571,4.094-1.973,5.263-3.948   c1.17-1.976,1.499-4.291,0.928-6.517c-0.973-3.802-4.397-6.459-8.324-6.459h0c-0.722,0-1.444,0.092-2.147,0.272   c-4.591,1.182-7.365,5.876-6.187,10.466c0.529,2.055,1.785,3.754,3.434,4.901c-0.53-0.129-1.069-0.203-1.611-0.203   c-0.582,0-1.164,0.074-1.73,0.221l-2.71,0.696v-11.925c0-4.162-3.386-7.547-7.547-7.547h-3.777   c-1.092-2.778-3.819-4.761-7.025-4.761l-32.487,3.69c-4.109,0.061-7.433,3.366-7.433,7.42v64.073c0,4.054,3.324,7.359,7.433,7.419   l32.274,3.679l0.214,0.012c3.174,0,5.883-1.94,6.997-4.674h3.805c4.162,0,7.547-3.385,7.547-7.547v-16.768l4.751,2.721   c0.12,12.53,0.135,12.62,0.191,12.954c0.06,0.364,0.177,0.704,0.339,1.015c0.964,2.69,3.499,4.508,6.415,4.508   c0.528,0,1.059-0.061,1.577-0.183c3.148-0.73,5.377-3.613,5.295-6.854l-0.23-16.877c0.13-3.698-1.789-6.074-3.487-6.99   c-0.063-0.034-0.127-0.066-0.193-0.096l-5.903-2.715l2.223-4.457l3.046,1.81c0.271,0.172,1.524,0.875,3.23,0.875   c1.349,0,3.885-0.462,5.719-3.555l5.957-10.16c0.053-0.091,0.102-0.184,0.147-0.279   C-160.691,382.031-160.553,380.561-160.907,379.18z M-184.463,372.073c-0.715-2.786,0.963-5.617,3.742-6.332   c0.435-0.112,0.873-0.165,1.302-0.165c2.319,0,4.433,1.557,5.035,3.907c0.715,2.786-0.962,5.617-3.748,6.332   c-0.434,0.112-0.869,0.165-1.297,0.165C-181.745,375.98-183.859,374.418-184.463,372.073z M-201.171,362.835h3.254   c2.081,0,3.774,1.692,3.774,3.774v12.894l-6.096,1.566c-0.323,0.085-0.634,0.195-0.932,0.328V362.835z M-204.945,422.658   c-0.022,0.097-0.041,0.194-0.064,0.291l0.064-0.016v10.239c0,1.98-1.64,3.597-3.676,3.647l-32.257-3.677l-0.214-0.012   c-2.081,0-3.774-1.636-3.774-3.647V365.41c0-2.011,1.692-3.647,3.774-3.647l32.471-3.688c2.036,0.05,3.676,1.667,3.676,3.647   V422.658z M-194.143,428.372c0,2.08-1.692,3.774-3.774,3.774h-3.254V421.96l1.057-0.272c4.03-0.911,5.558-3.281,5.961-4.061   l0.01-0.019V428.372z M-164.37,381.881l-5.949,10.146c-0.895,1.509-1.955,1.891-2.797,1.891c-0.861,0-1.496-0.398-1.496-0.398   l-6.189-3.676l-5.419,10.864l9.087,4.18c0,0,1.838,0.991,1.702,3.955l0.232,17.009c0.041,1.611-1.041,3.082-2.673,3.461   c-0.27,0.063-0.539,0.093-0.804,0.093c-1.562,0-2.96-1.055-3.333-2.648c-0.003-0.015-0.001-0.03-0.004-0.044l-0.066,0.009   c-0.029-0.173-0.163-14.376-0.163-14.376l-10.01-5.734l-4.915,9.447c0,0-0.759,1.667-3.744,2.326l-0.261,0.067v-12.814   l8.882-17.476l-4.652,1.17l-4.23,8.488v-11.98l0.006-0.012c0.33-0.705,0.968-1.26,1.771-1.471l12.589-3.233   c0.293-0.076,0.587-0.112,0.875-0.112c0.621,0,1.219,0.168,1.737,0.464l10.092,5.966l4.944-8.352   c0.367-0.517,0.909-0.907,1.567-1.079c0.233-0.059,0.466-0.088,0.695-0.088c1.244,0,2.374,0.837,2.697,2.099   C-164.032,380.667-164.107,381.319-164.37,381.881z"/></g><text x="-255" y="462" fill="#000000" font-size="5px" font-weight="bold" font-family="'Helvetica Neue', Helvetica, Arial-Unicode, Arial, Sans-serif">Created by Ilya Tsarenko</text><text x="-255" y="467" fill="#000000" font-size="5px" font-weight="bold" font-family="'Helvetica Neue', Helvetica, Arial-Unicode, Arial, Sans-serif">from the Noun Project</text></svg>